<?xml version="1.0" encoding="UTF-8"?>
<svg width="120" height="120" viewBox="0 0 120 120" xmlns="http://www.w3.org/2000/svg">
  <!-- Gota principal estilizada -->
  <path d="M60 20 Q75 35 72 60 Q70 85 60 95 Q50 85 48 60 Q45 35 60 20" 
        fill="#e74c3c" stroke="#c0392b" stroke-width="2"/>
  
  <!-- Gota secundária -->
  <path d="M85 35 Q95 45 93 60 Q91 75 85 80 Q79 75 77 60 Q75 45 85 35" 
        fill="#3498db" stroke="#2980b9" stroke-width="1.5"/>
  
  <!-- Gota pequena -->
  <path d="M35 45 Q40 50 39 60 Q38 70 35 72 Q32 70 31 60 Q30 50 35 45" 
        fill="#27ae60" stroke="#229954" stroke-width="1"/>
  
  <!-- Símbolo de coração minimalista -->
  <path d="M55 70 Q55 65 60 65 Q65 65 65 70 Q65 75 60 80 Q55 75 55 70" 
        fill="#e91e63" stroke="#c2185b" stroke-width="1"/>
</svg>
